<svg height="512pt" viewBox="0 0 512 512.00002" width="512pt" xmlns="http://www.w3.org/2000/svg"><path d="m317.441406 403.113281h-276.480468c-25.429688-19.796875-30.550782-57-15.359376-87.378906 17.066407-34.132813 8.53125-85.335937 8.53125-85.335937h290.132813s-8.53125 51.203124 8.535156 85.335937c15.1875 30.378906 10.070313 67.582031-15.359375 87.378906zm0 0" fill="#783e22"/><path d="m293.800781 403.113281h-252.839843c-25.429688-19.796875-30.550782-57-15.359376-87.378906 17.066407-34.132813 8.53125-85.335937 8.53125-85.335937h266.496094s-8.53125 51.203124 8.535156 85.335937c15.1875 30.378906 10.066407 67.582031-15.363281 87.378906zm0 0" fill="#a0522d"/><path d="m332.800781 503.464844h-307.199219c-9.414062-.027344-17.039062-7.652344-17.066406-17.066406v-8.53125c-.015625-46.699219 31.578125-87.492188 76.796875-99.15625v73.554687h34.132813v-76.800781h119.46875v76.800781h34.132812v-73.554687c16.902344 4.363281 32.410156 12.96875 45.054688 25zm0 0" fill="#ef314c"/><path d="m153.601562 330.496094h51.199219v70.570312h-51.199219zm0 0" fill="#ffe0b2"/><path d="m85.332031 452.265625h187.734375c4.714844 0 8.535156 3.820313 8.535156 8.535156v42.664063h-204.800781v-42.664063c0-4.714843 3.820313-8.535156 8.53125-8.535156zm0 0" fill="#f5f5f5"/><path d="m119.464844 375.464844v76.800781h-34.132813v-73.554687c8.359375-2.171876 16.964844-3.261719 25.601563-3.246094zm0 0" fill="#9e9e9e"/><path d="m273.066406 378.710938v73.554687h-34.132812v-76.800781h8.53125c8.636718-.007813 17.242187 1.082031 25.601562 3.246094zm0 0" fill="#9e9e9e"/><path d="m324.265625 401.066406h170.667969c4.710937 0 8.53125 3.820313 8.53125 8.535156v85.332032c0 4.710937-3.820313 8.53125-8.53125 8.53125h-170.667969c-4.710937 0-8.53125-3.820313-8.53125-8.53125v-85.332032c0-4.714843 3.820313-8.535156 8.53125-8.535156zm0 0" fill="#707070"/><path d="m324.265625 401.066406h147.03125c4.710937 0 8.53125 3.820313 8.53125 8.535156v85.332032c0 4.710937-3.820313 8.53125-8.53125 8.53125h-147.03125c-4.710937 0-8.53125-3.820313-8.53125-8.53125v-85.332032c0-4.714843 3.820313-8.535156 8.53125-8.535156zm0 0" fill="#9e9e9e"/><path d="m486.398438 358.398438v42.667968h-85.332032v-42.667968c.015625-4.707032 3.828125-8.519532 8.535156-8.53125h68.265626c4.707031.011718 8.519531 3.824218 8.53125 8.53125zm0 0" fill="#545c60"/><path d="m462.761719 358.398438v42.667968h-61.695313v-42.667968c.015625-4.707032 3.828125-8.519532 8.535156-8.53125h44.628907c4.707031.011718 8.519531 3.824218 8.53125 8.53125zm0 0" fill="#7f8e94"/><path d="m443.734375 281.601562h34.132813c4.710937 0 8.53125 3.820313 8.53125 8.53125v17.066407c0 4.714843-3.820313 8.535156-8.53125 8.535156h-34.132813c-4.714844 0-8.535156-3.820313-8.535156-8.535156v-17.066407c0-4.710937 3.820312-8.53125 8.535156-8.53125zm0 0" fill="#02a9f4"/><path d="m336.296875 209.835938c-3.160156-3.242188-7.503906-5.058594-12.03125-5.035157h-.085937c.085937-1.453125.085937-11.433593.085937-12.800781-.179687-46.277344-23.328125-89.445312-61.78125-115.199219h2.050781l-13.824218-55.382812c-1.894532-7.59375-8.730469-12.914063-16.554688-12.882813h-109.910156c-7.828125-.03125-14.664063 5.289063-16.554688 12.882813l-13.824218 55.382812h2.046874c-38.449218 25.753907-61.601562 68.921875-61.78125 115.199219 0 1.367188 0 11.347656.085938 12.800781h-.085938c-9.398437.066407-17 7.667969-17.066406 17.066407.027344 9.414062 7.652344 17.039062 17.066406 17.066406h19.542969c11.773438 53.589844 63.488281 93.867187 125.523438 93.867187 62.039062 0 113.75-40.277343 125.527343-93.867187h19.539063c9.414063-.027344 17.039063-7.652344 17.066406-17.066406.023438-4.527344-1.792969-8.871094-5.035156-12.03125zm0 0" fill="#af8066"/><path d="m53.675781 238.933594h-19.542969c-9.414062-.027344-17.039062-7.652344-17.066406-17.066406.066406-9.398438 7.667969-17 17.066406-17.066407h17.664063c-.414063 3.652344-.617187 7.328125-.597656 11.007813.011719 4.046875.242187 8.09375.683593 12.117187.425782 3.753907 1.023438 7.339844 1.792969 11.007813zm0 0" fill="#ffe0b2"/><path d="m57.171875 251.222656c-1.460937-4.007812-2.632813-8.113281-3.496094-12.289062-.429687-1.878906-.769531-3.667969-1.023437-5.460938.339844 1.707032.679687 3.328125 1.023437 5.035156.933594 4.296876 2.101563 8.542969 3.496094 12.714844zm0 0" fill="#fdd7ad"/><path d="m69.632812 158.207031c-.316406.464844-.601562.949219-.855468 1.453125h-.085938c.285156-.503906.597656-.988281.941406-1.453125zm0 0" fill="#af8066"/><path d="m303.53125 188.074219c-.003906-.132813-.066406-.257813-.171875-.339844-.253906-1.109375-.511719-2.132813-.851563-3.242187zm0 0" fill="#af8066"/><path d="m341.332031 221.867188c-.027343 9.414062-7.652343 17.039062-17.066406 17.066406h-19.539063c.765626-3.667969 1.363282-7.253906 1.789063-11.007813.445313-4.023437.671875-8.070312.683594-12.117187.019531-3.679688-.179688-7.355469-.597657-11.007813h17.664063c9.398437.066407 17 7.667969 17.066406 17.066407zm0 0" fill="#dfc49c"/><path d="m324.265625 192c0 1.367188 0 11.347656-.085937 12.800781h-17.578126c-.253906-3.074219-.765624-6.144531-1.277343-9.214843-.511719-2.5625-1.109375-5.035157-1.792969-7.511719l-1.023438-3.582031c.339844 1.109374.597657 2.132812.851563 3.242187-5.617187-12.34375-12.941406-23.832031-21.757813-34.132813-70.402343 5.886719-108.632812-20.566406-125.441406-37.71875-5.144531-1.851562-10.507812-3.027343-15.957031-3.5-7.851563 12.628907-27.222656 34.390626-71.425781 47.277344.253906-.503906.539062-.988281.855468-1.453125-.34375.464844-.65625.949219-.941406 1.453125-4.820312 7.949219-9.097656 16.214844-12.796875 24.746094v.085938c-1.109375 3.667968-2.050781 7.335937-2.816406 11.09375-.511719 3.070312-1.023437 6.140624-1.28125 9.214843h-17.578125c-.085938-1.453125-.085938-11.433593-.085938-12.800781.179688-46.277344 23.332032-89.445312 61.78125-115.199219h166.570313c38.453125 25.753907 61.601563 68.921875 61.78125 115.199219zm0 0" fill="#91562d"/><path d="m324.265625 192c0 1.367188 0 11.347656-.085937 12.800781h-17.578126c-.253906-3.074219-.765624-6.144531-1.277343-9.214843-.511719-2.5625-1.109375-5.035157-1.792969-7.511719l-1.023438-3.582031c.339844 1.109374.597657 2.132812.851563 3.242187-.886719-2.582031-1.972656-5.09375-3.242187-7.511719-3.808594-41.941406-26.316407-79.933594-61.269532-103.421875h23.636719c38.453125 25.753907 61.601563 68.921875 61.78125 115.199219zm0 0" fill="#6d4122"/><path d="m69.632812 158.207031c-.316406.464844-.601562.949219-.855468 1.453125h-.085938c.285156-.503906.597656-.988281.941406-1.453125zm0 0" fill="#af8066"/><path d="m303.53125 188.074219c-.003906-.132813-.066406-.257813-.171875-.339844-.253906-1.109375-.511719-2.132813-.851563-3.242187zm0 0" fill="#af8066"/><path d="m264.535156 76.800781h-170.667968l13.824218-55.382812c1.890625-7.59375 8.726563-12.914063 16.554688-12.882813h109.910156c7.824219-.03125 14.660156 5.289063 16.554688 12.882813zm0 0" fill="#bb193b"/><path d="m240.894531 76.800781h-147.027343l13.824218-55.382812c1.890625-7.59375 8.726563-12.914063 16.554688-12.882813h86.269531c7.828125-.03125 14.664063 5.289063 16.554687 12.882813zm0 0" fill="#ef314c"/><path d="m307.199219 215.808594c-.011719 4.046875-.238281 8.09375-.683594 12.117187-.425781 3.667969-1.023437 7.339844-1.789063 10.921875-1.253906 5.730469-2.96875 11.355469-5.121093 16.8125-.597657 1.363282-1.109375 2.644532-1.707031 3.925782-3.242188 7.339843-7.246094 14.316406-11.945313 20.820312-1.367187 1.792969-2.644531 3.496094-4.011719 5.203125-1.878906 2.21875-3.839844 4.4375-5.800781 6.570313-2.050781 2.136718-4.097656 4.183593-6.316406 6.230468-2.046875 1.878906-4.179688 3.667969-6.316407 5.375-.339843.257813-.597656.511719-.9375.769532-4.550781 3.589843-9.339843 6.867187-14.335937 9.8125-4.769531 2.761718-9.699219 5.242187-14.761719 7.425781-.769531.339843-1.453125.597656-2.21875.9375-2.644531 1.023437-5.207031 2.046875-7.9375 2.902343-.085937.085938-.167968.085938-.339844.085938-2.378906.867188-4.796874 1.605469-7.253906 2.21875-.945312.332031-1.914062.589844-2.902344.765625-.472656.15625-.957031.269531-1.449218.34375-1.792969.511719-3.585938.851563-5.375 1.191406-1.367188.257813-2.730469.515625-4.011719.683594-1.707031.34375-3.5.597656-5.207031.769531-1.523438.253906-3.0625.425782-4.605469.511719-2.132813.253906-4.269531.339844-6.402344.425781-2.21875.085938-4.351562.171875-6.570312.171875s-4.351563-.085937-6.570313-.171875c-1.707031-.085937-3.5-.171875-5.203125-.339844-.402343.011719-.800781-.015624-1.195312-.085937-1.546875-.085937-3.082031-.257813-4.609375-.511719-1.707032-.171875-3.5-.425781-5.207032-.769531-1.277343-.167969-2.644531-.425781-4.007812-.683594-1.792969-.339843-3.585938-.679687-5.375-1.191406-.492188-.074219-.980469-.1875-1.453125-.34375-1.015625-.175781-2.011719-.429687-2.984375-.765625-2.113281-.496094-4.195312-1.125-6.230469-1.878906-.851562-.207032-1.679687-.492188-2.476562-.851563-1.960938-.597656-3.925781-1.367187-5.886719-2.136719l-3.070312-1.277343c-2.304688-.941407-4.609376-2.050781-6.828126-3.160157-2.730468-1.363281-5.460937-2.8125-8.023437-4.351562-2.644531-1.535156-5.203125-3.15625-7.679687-4.863281-2.386719-1.621094-4.691407-3.328125-6.910157-5.121094-.171875-.082031-.339843-.253906-.511719-.339844-2.132812-1.707031-4.265624-3.582031-6.316406-5.375-.9375-.855469-1.875-1.792969-2.816406-2.730469-2.046875-1.964843-4.09375-4.097656-5.972656-6.230468-8.035156-8.980469-14.601563-19.175782-19.457032-30.207032-.59375-1.367187-1.105468-2.730468-1.703124-4.097656l-1.539063-4.09375c-1.394531-4.171875-2.5625-8.417968-3.496094-12.714844-.34375-1.707031-.683593-3.328124-1.023437-5.035156-.257813-1.792968-.511719-3.671875-.769532-5.546875-.441406-4.023437-.671874-8.070312-.683593-12.117187-.019531-3.679688.183593-7.355469.597656-11.007813.257813-3.074219.769531-6.144531 1.28125-9.214843.597656-2.988282 1.363281-5.890626 2.132813-8.792969l.085937-.253907 4.4375-23.46875v-.9375c3.070313-.765624 6.058594-1.535156 8.957031-2.472656 37.292969-10.839844 56.917969-27.992187 66.902344-40.707031 1.664062-2.097656 3.203125-4.289063 4.609375-6.570313 2.054687-3.097656 3.6875-6.457031 4.863281-9.984374 3.082032 4.894531 6.75 9.394531 10.921875 13.398437 14.082031 14.335937 43.351563 35.5 94.378907 38.316406 2.644531.167969 5.375.253907 8.191406.253907 7.691406.15625 15.378906-.097657 23.042968-.765626 8.898438 10.398438 16.28125 22.003907 21.929688 34.472657v.085937c0 .085938.085938.171875.085938.257813.597656 2.386719 1.195312 4.777343 1.707031 7.167969.511719 3.070312 1.023437 6.140624 1.277343 9.214843.417969 3.652344.617188 7.328125.597657 11.007813zm0 0" fill="#dfc49c"/><path d="m283.5625 215.808594c-.011719 4.046875-.238281 8.09375-.683594 12.117187-.425781 3.667969-1.023437 7.339844-1.789062 10.921875-1.253906 5.730469-2.96875 11.355469-5.121094 16.8125-.597656 1.363282-1.109375 2.644532-1.707031 3.925782-3.242188 7.339843-7.246094 14.316406-11.945313 20.820312-1.367187 1.792969-2.648437 3.496094-4.011718 5.203125-1.878907 2.21875-3.839844 4.4375-5.804688 6.570313-2.046875 2.136718-4.09375 4.183593-6.3125 6.230468-2.046875 1.878906-4.183594 3.667969-6.316406 5.375-.339844.257813-.597656.511719-.9375.769532-4.550782 3.589843-9.34375 6.867187-14.335938 9.8125-4.769531 2.761718-9.699218 5.242187-14.761718 7.425781-.769532.339843-1.453126.597656-2.21875.9375-2.648438 1.023437-5.207032 2.046875-7.9375 2.902343-.085938.085938-.171876.085938-.339844.085938-2.378906.867188-4.800782 1.605469-7.253906 2.21875-.945313.332031-1.914063.589844-2.902344.765625-.472656.15625-.957032.269531-1.449219.34375-1.792969.511719-3.585937.851563-5.378906 1.191406-1.363281.257813-2.730469.515625-4.007813.683594-1.707031.34375-3.5.597656-5.207031.769531-1.523437.253906-3.0625.425782-4.605469.511719-.367187.070313-.738281.097656-1.109375.085937-.402343.011719-.800781-.015624-1.195312-.085937-1.546875-.085937-3.082031-.257813-4.609375-.511719-1.707032-.171875-3.5-.425781-5.207032-.769531-1.277343-.167969-2.644531-.425781-4.007812-.683594-1.792969-.339843-3.585938-.679687-5.375-1.191406-.492188-.074219-.980469-.1875-1.453125-.34375-1.015625-.175781-2.011719-.429687-2.984375-.765625-2.113281-.496094-4.195312-1.125-6.230469-1.878906-.851562-.207032-1.679687-.492188-2.476562-.851563-1.960938-.597656-3.925781-1.367187-5.886719-2.136719l-3.070312-1.277343c-2.304688-.941407-4.609376-2.050781-6.828126-3.160157-2.730468-1.363281-5.460937-2.8125-8.023437-4.351562-2.644531-1.535156-5.203125-3.15625-7.679687-4.863281-2.386719-1.621094-4.691407-3.328125-6.910157-5.121094-.171875-.082031-.339843-.253906-.511719-.339844-2.132812-1.707031-4.265624-3.582031-6.316406-5.375-.9375-.855469-1.875-1.792969-2.816406-2.730469-2.046875-1.964843-4.09375-4.097656-5.972656-6.230468-8.035156-8.980469-14.601563-19.175782-19.457032-30.207032-.59375-1.367187-1.105468-2.730468-1.703124-4.097656l-1.539063-4.09375c-1.394531-4.171875-2.5625-8.417968-3.496094-12.714844-.34375-1.707031-.683593-3.328124-1.023437-5.035156-.257813-1.792968-.511719-3.671875-.769532-5.546875-.441406-4.023437-.671874-8.070312-.683593-12.117187-.019531-3.679688.183593-7.355469.597656-11.007813.257813-3.074219.769531-6.144531 1.28125-9.214843.597656-2.988282 1.363281-5.890626 2.132813-8.792969l.085937-.253907 4.4375-23.46875v-.9375c3.070313-.765624 6.058594-1.535156 8.957031-2.472656 37.292969-10.839844 56.917969-27.992187 66.902344-40.707031 17.410156 16.300781 52.992188 38.402344 114.773438 35.160156 2.476562-.085937 5.035156-.257812 7.59375-.511719.222656.234376.421874.492188.597656.765626 8.722656 10.132812 15.910156 21.488281 21.335937 33.707031v.085937c0 .085938.085938.171875.085938.257813.59375 2.386719 1.191406 4.777343 1.703125 7.167969.515625 3.070312 1.027344 6.140624 1.28125 9.214843.417968 3.652344.617187 7.328125.597656 11.007813zm0 0" fill="#ffe0b2"/><path d="m51.882812 247.464844h-17.75c-14.132812-.015625-25.582031-11.464844-25.597656-25.597656.0625-14.113282 11.488282-25.535157 25.597656-25.601563h17.664063c4.714844 0 8.535156 3.820313 8.535156 8.535156 0 4.710938-3.820312 8.53125-8.535156 8.53125h-17.578125c-2.253906-.035156-4.425781.851563-6.007812 2.460938-1.671876 1.578125-2.617188 3.773437-2.609376 6.074219.003907 4.710937 3.820313 8.527343 8.53125 8.53125h17.75c4.710938 0 8.53125 3.820312 8.53125 8.535156 0 4.710937-3.820312 8.53125-8.53125 8.53125zm0 0"/><path d="m324.265625 247.464844h-17.75c-4.710937 0-8.53125-3.820313-8.53125-8.53125 0-4.714844 3.820313-8.535156 8.53125-8.535156h17.75c4.710937-.003907 8.527344-3.820313 8.535156-8.53125.019531-2.226563-.867187-4.367188-2.460937-5.925782-1.578125-1.671875-3.773438-2.613281-6.074219-2.609375h-17.664063c-4.710937 0-8.53125-3.820312-8.53125-8.53125 0-4.714843 3.820313-8.535156 8.53125-8.535156h17.578126c14.144531.019531 25.621093 11.457031 25.6875 25.601563-.015626 14.132812-11.46875 25.582031-25.601563 25.597656zm0 0"/><path d="m34.203125 213.304688c-4.511719.007812-8.246094-3.507813-8.507813-8.011719-.082031-1.507813-.09375-11.871094-.09375-13.292969.234376-49.089844 24.773438-94.871094 65.515626-122.253906 3.894531-2.578125 9.136718-1.546875 11.765624 2.3125 2.625 3.863281 1.660157 9.121094-2.167968 11.796875-36.066406 24.207031-57.808594 64.707031-58.046875 108.144531 0 1.304688-.011719 10.738281.070312 12.324219.230469 4.699219-3.375 8.703125-8.070312 8.96875-.15625.007812-.308594.011719-.464844.011719zm0 0"/><path d="m324.191406 213.332031c-.171875 0-.328125 0-.5-.011719-4.699218-.269531-8.292968-4.296874-8.027344-9 .078126-1.601562.070313-11.015624.070313-12.320312-.242187-43.4375-21.980469-83.9375-58.050781-108.144531-2.5625-1.699219-4.015625-4.644531-3.800782-7.710938.210938-3.066406 2.058594-5.78125 4.835938-7.105469 2.773438-1.324218 6.046875-1.054687 8.566406.707032 40.742188 27.382812 65.277344 73.164062 65.515625 122.253906 0 1.421875-.011719 11.785156-.097656 13.292969-.257813 4.511719-3.992187 8.035156-8.511719 8.039062zm0 0"/><path d="m153.601562 409.601562c-4.714843 0-8.535156-3.820312-8.535156-8.535156v-70.570312c0-4.714844 3.820313-8.535156 8.535156-8.535156 4.710938 0 8.53125 3.820312 8.53125 8.535156v70.570312c0 4.714844-3.820312 8.535156-8.53125 8.535156zm0 0"/><path d="m204.800781 409.601562c-4.714843 0-8.535156-3.820312-8.535156-8.535156v-70.570312c0-4.714844 3.820313-8.535156 8.535156-8.535156 4.710938 0 8.53125 3.820312 8.53125 8.535156v70.570312c0 4.714844-3.820312 8.535156-8.53125 8.535156zm0 0"/><path d="m332.800781 512h-307.199219c-14.132812-.015625-25.585937-11.46875-25.601562-25.601562v-8.53125c.0664062-61.238282 49.695312-110.867188 110.933594-110.933594h42.667968c4.710938 0 8.53125 3.820312 8.53125 8.53125 0 4.714844-3.820312 8.535156-8.53125 8.535156h-42.667968c-51.816406.058594-93.808594 42.050781-93.867188 93.867188v8.53125c.007813 4.710937 3.824219 8.527343 8.535156 8.535156h307.199219c4.710938 0 8.53125 3.820312 8.53125 8.53125 0 4.714844-3.820312 8.535156-8.53125 8.535156zm0 0"/><path d="m318.121094 412.246094c-2.191406.003906-4.300782-.84375-5.886719-2.359375-17.4375-16.664063-40.644531-25.941407-64.769531-25.886719h-42.664063c-4.714843 0-8.535156-3.820312-8.535156-8.535156 0-4.710938 3.820313-8.53125 8.535156-8.53125h42.664063c28.511718-.066406 55.941406 10.902344 76.546875 30.605468 2.523437 2.40625 3.328125 6.105469 2.03125 9.34375-1.296875 3.238282-4.433594 5.363282-7.921875 5.363282zm0 0"/><path d="m264.535156 85.332031h-170.667968c-2.628907 0-5.109376-1.210937-6.726563-3.28125-1.617187-2.070312-2.1875-4.773437-1.550781-7.320312l13.832031-55.339844c2.839844-11.402344 13.085937-19.4023438 24.835937-19.390625h109.882813c11.753906-.0117188 22 7.988281 24.839844 19.390625l13.832031 55.339844c.636719 2.546875.0625 5.25-1.554688 7.320312-1.617187 2.070313-4.097656 3.28125-6.722656 3.28125zm-159.738281-17.066406h148.808594l-11.183594-44.730469c-.945313-3.804687-4.363281-6.472656-8.28125-6.46875h-109.882813c-3.917968-.003906-7.332031 2.664063-8.277343 6.46875zm0 0"/><path d="m281.601562 512h-204.800781c-4.714843 0-8.535156-3.820312-8.535156-8.535156v-42.664063c.011719-9.421875 7.644531-17.058593 17.066406-17.066406h187.734375c9.421875.007813 17.058594 7.644531 17.066406 17.066406v42.664063c0 4.714844-3.820312 8.535156-8.53125 8.535156zm-196.269531-17.066406h187.734375v-34.132813h-187.734375zm0 0"/><path d="m119.464844 460.800781h-34.132813c-4.710937 0-8.53125-3.820312-8.53125-8.535156v-73.554687c0-4.714844 3.820313-8.535157 8.53125-8.535157 4.714844 0 8.535157 3.820313 8.535157 8.535157v65.023437h17.066406v-59.734375c-4.714844 0-8.535156-3.820312-8.535156-8.535156 0-4.710938 3.820312-8.53125 8.535156-8.53125h8.53125c4.714844 0 8.535156 3.820312 8.535156 8.53125v76.800781c0 4.714844-3.820312 8.535156-8.535156 8.535156zm0 0"/><path d="m273.066406 460.800781h-34.132812c-4.714844 0-8.535156-3.820312-8.535156-8.535156v-76.800781c0-4.710938 3.820312-8.53125 8.535156-8.53125h8.53125c4.714844 0 8.535156 3.820312 8.535156 8.53125 0 4.714844-3.820312 8.535156-8.535156 8.535156v59.734375h17.070312v-65.023437c0-4.714844 3.820313-8.535157 8.53125-8.535157 4.714844 0 8.535156 3.820313 8.535156 8.535157v73.554687c0 4.714844-3.820312 8.535156-8.535156 8.535156zm0 0"/><path d="m494.933594 512h-170.667969c-9.421875-.007812-17.054687-7.644531-17.066406-17.066406v-85.332032c.011719-9.421874 7.644531-17.058593 17.066406-17.066406h170.667969c9.421875.007813 17.058594 7.644532 17.066406 17.066406v85.332032c-.007812 9.421875-7.644531 17.058594-17.066406 17.066406zm-170.667969-102.398438h-.011719l.011719 85.332032h170.667969v-85.332032zm0 0"/><path d="m486.398438 409.601562h-85.332032c-4.710937 0-8.53125-3.820312-8.53125-8.535156v-42.667968c.007813-9.421876 7.644532-17.054688 17.066406-17.066407h68.265626c9.421874.011719 17.058593 7.644531 17.066406 17.066407v42.667968c0 4.714844-3.820313 8.535156-8.535156 8.535156zm-76.796876-17.066406h68.265626v-34.136718h-68.265626zm0 0"/><path d="m477.867188 324.265625h-34.132813c-9.421875-.007813-17.058594-7.644531-17.066406-17.066406v-17.066407c.007812-9.421874 7.644531-17.058593 17.066406-17.066406h34.132813c9.421874.007813 17.058593 7.644532 17.066406 17.066406v17.066407c-.007813 9.421875-7.644532 17.058593-17.066406 17.066406zm-34.132813-34.132813v17.066407h34.144531l-.011718-17.066407zm0 0"/><path d="m460.800781 358.398438c-4.714843 0-8.535156-3.820313-8.535156-8.53125v-34.132813c0-4.714844 3.820313-8.535156 8.535156-8.535156 4.710938 0 8.53125 3.820312 8.53125 8.535156v34.132813c0 4.710937-3.820312 8.53125-8.53125 8.53125zm0 0"/><path d="m503.464844 477.867188h-85.332032c-4.710937 0-8.53125-3.820313-8.53125-8.535157 0-4.710937 3.820313-8.53125 8.53125-8.53125h85.332032c4.714844 0 8.535156 3.820313 8.535156 8.53125 0 4.714844-3.820312 8.535157-8.535156 8.535157zm0 0"/><path d="m375.464844 477.867188h-59.730469c-4.714844 0-8.535156-3.820313-8.535156-8.535157 0-4.710937 3.820312-8.53125 8.535156-8.53125h59.730469c4.714844 0 8.535156 3.820313 8.535156 8.53125 0 4.714844-3.820312 8.535157-8.535156 8.535157zm0 0"/><path d="m40.972656 411.648438c-1.898437 0-3.742187-.632813-5.238281-1.800782-27.824219-21.667968-35.292969-62.847656-17.753906-97.929687 15.507812-31.011719 7.875-70.921875 7.792969-71.324219-.921876-4.621094 2.078124-9.113281 6.703124-10.035156 4.621094-.921875 9.113282 2.078125 10.035157 6.699218.371093 1.863282 8.902343 45.960938-9.265625 82.292969-13.917969 27.832031-8.457032 60.144531 12.96875 76.832031 2.878906 2.242188 4.011718 6.058594 2.828125 9.507813-1.183594 3.445313-4.425781 5.761719-8.070313 5.757813zm0 0"/><path d="m317.457031 411.648438c-3.644531 0-6.886719-2.3125-8.070312-5.761719-1.1875-3.445313-.050781-7.265625 2.824219-9.503907 21.433593-16.6875 26.890624-49 12.972656-76.835937-18.171875-36.324219-9.640625-80.425781-9.269532-82.289063.59375-2.988281 2.742188-5.433593 5.628907-6.414062 2.886719-.976562 6.078125-.339844 8.367187 1.671875 2.292969 2.007813 3.335938 5.089844 2.738282 8.078125-.078126.402344-7.710938 40.3125 7.796874 71.324219 17.542969 35.078125 10.074219 76.265625-17.75 97.933593-1.496093 1.164063-3.339843 1.800782-5.238281 1.796876zm0 0"/><path d="m179.210938 341.332031c-9.105469.015625-18.199219-.804687-27.15625-2.445312-52.230469-8.273438-94.339844-47.175781-106.710938-98.589844-.820312-3.730469-1.464844-7.503906-1.921875-11.367187-.480469-4.355469-.730469-8.738282-.742187-13.121094-.019532-4.019532.199218-8.035156.660156-12.023438.242187-2.992187.785156-6.300781 1.335937-9.605468.660157-3.355469 1.449219-6.367188 2.25-9.375 1-4.195313 4.972657-6.984376 9.257813-6.5 4.289062.484374 7.539062 4.089843 7.574218 8.402343v.085938c0 .742187-.097656 1.476562-.285156 2.191406-.726562 2.730469-1.453125 5.457031-2.015625 8.269531-.425781 2.570313-.90625 5.410156-1.140625 8.25-.398437 3.417969-.585937 6.859375-.570312 10.304688.011718 3.746094.226562 7.492187.636718 11.214844.378907 3.203124.933594 6.429687 1.644532 9.660156 10.933594 44.683594 47.6875 78.390625 93.148437 85.425781 15.898438 2.867187 32.179688 2.867187 48.078125-.003906 45.320313-7.070313 82.011719-40.582031 93.144532-85.078125.710937-3.289063 1.257812-6.683594 1.65625-10.085938.40625-3.695312.613281-7.410156.625-11.132812.019531-3.339844-.160157-6.679688-.539063-10.003906-.265625-3.128907-.746094-5.972657-1.21875-8.816407-.417969-1.972656-.976563-4.265625-1.605469-6.570312-5.246094-11.34375-12.0625-21.890625-20.246094-31.335938-2.992187-3.617187-2.503906-8.972656 1.09375-11.984375 3.597657-3.015625 8.957032-2.554687 11.992188 1.023438 9.699219 11.238281 17.632812 23.882812 23.535156 37.5.8125 2.929687 1.453125 5.585937 2 8.234375.613282 3.625 1.148438 6.929687 1.429688 10.230469.441406 3.890624.648437 7.804687.625 11.722656-.007813 4.351562-.253906 8.699218-.734375 13.027344-.46875 4.066406-1.117188 8.011718-1.933594 11.808593-12.582031 51.21875-54.617187 89.917969-106.699219 98.238281-8.960937 1.644532-18.054687 2.464844-27.167968 2.449219zm0 0"/><path d="m59.738281 170.667969c-4.3125-.011719-7.9375-3.230469-8.457031-7.511719-.515625-4.277344 2.238281-8.269531 6.421875-9.304688 67.804687-16.71875 79.066406-53.433593 79.171875-53.804687.945312-3.300781 3.777344-5.714844 7.183594-6.125 3.410156-.410156 6.730468 1.265625 8.433594 4.246094 1.285156 2.207031 33.148437 54.832031 128.414062 46.929687 4.699219-.390625 8.824219 3.097656 9.214844 7.796875.390625 4.695313-3.101563 8.820313-7.796875 9.210938-78.925781 6.570312-119.476563-25.570313-135.796875-43.761719-9.914063 15.222656-33.15625 39.363281-84.734375 52.074219-.671875.167969-1.363281.25-2.054688.25zm0 0"/><path d="m55.222656 196.265625c-2.535156 0-4.933594-1.125-6.558594-3.070313-1.621093-1.941406-2.296874-4.507812-1.84375-6.996093l4.523438-24.664063c.9375-4.539062 5.332031-7.5 9.890625-6.664062 4.5625.835937 7.621094 5.15625 6.890625 9.738281l-4.519531 24.660156c-.742188 4.050781-4.269531 6.992188-8.382813 6.996094zm0 0"/></svg>